<svg xmlns="http://www.w3.org/2000/svg" xmlns:svg="http://www.w3.org/2000/svg" x="0" y="0" enable-background="new 0 0 2000 2000" version="1.1" viewBox="0 0 823.934 823.934" xml:space="preserve"><path fill="#444" d="m 776.75678,0 c -12.064,0 -24.124,4.608 -33.345,13.828 L 411.94378,345.27301 80.52575,13.879 c -18.443,-18.441 -48.255,-18.441 -66.695,0 -18.441,18.44 -18.441,48.244 0,66.685 l 331.418,331.39601 -331.418,331.399 c -18.441,18.44 -18.441,48.25 0,66.691 9.198,9.198 21.272,13.817 33.347,13.817 12.073,0 24.15,-4.619 33.348,-13.817 l 331.41803,-331.398 331.468,331.445 c 9.197,9.198 21.271,13.82 33.345,13.82 12.074,0 24.101,-4.622 33.346,-13.82 18.442,-18.441 18.442,-48.247 0,-66.687 l -331.464,-331.446 331.464,-331.44501 c 18.442,-18.441 18.442,-48.25 0,-66.691 C 800.88178,4.608 788.81678,0 776.75678,0 Z"/></svg>